<?xml version="1.0" encoding="UTF-8"?>
<svg version="1.1" xmlns="http://www.w3.org/2000/svg" width="400" height="200">
<path d="M0 0 C1.00792099 -0.00945648 2.01584198 -0.01891296 3.05430603 -0.02865601 C4.68560204 -0.01954697 4.68560204 -0.01954697 6.34985352 -0.01025391 C8.02725365 -0.01455917 8.02725365 -0.01455917 9.73854065 -0.01895142 C12.10483303 -0.02099404 14.47114221 -0.01545043 16.83740234 -0.00292969 C20.46107771 0.01310535 24.08363507 -0.00276478 27.70727539 -0.02197266 C30.0048039 -0.01998997 32.30233171 -0.01614576 34.59985352 -0.01025391 C35.68535995 -0.0163266 36.77086639 -0.02239929 37.88926697 -0.02865601 C38.90034012 -0.01919952 39.91141327 -0.00974304 40.953125 0 C41.84120346 0.00238678 42.72928192 0.00477356 43.64427185 0.00723267 C46.54186403 0.46774414 47.92590435 1.38251244 50.04125977 3.38818359 C50.53735352 5.76318359 50.53735352 5.76318359 50.47875977 8.38818359 C50.4774707 9.25443359 50.47618164 10.12068359 50.47485352 11.01318359 C49.96559942 13.80261143 49.2443709 14.66447806 47.04125977 16.38818359 C44.52448863 17.64656916 42.62832689 17.59637332 39.81469727 17.70458984 C38.78344727 17.74648437 37.75219727 17.78837891 36.68969727 17.83154297 C35.60946289 17.87085937 34.52922852 17.91017578 33.41625977 17.95068359 C32.32829102 17.99386719 31.24032227 18.03705078 30.11938477 18.08154297 C27.42680807 18.18782889 24.73413723 18.28986417 22.04125977 18.38818359 C22.88946289 19.17878174 23.73766602 19.96937988 24.61157227 20.78393555 C27.77051332 23.7428039 30.89210218 26.73873972 34.00415039 29.74682617 C35.35242389 31.03999885 36.71043424 32.32310247 38.07836914 33.59545898 C49.43976332 44.18258905 49.43976332 44.18258905 50.95141602 49.72558594 C50.97640513 52.48375917 50.8245554 54.74877559 50.04125977 57.38818359 C48.28546331 59.14398005 46.12573794 58.93673114 43.72485352 59.15380859 C38.0395458 59.10329498 34.96564854 57.40476846 31.01391602 53.49755859 C28.98900898 51.4249394 27.04297937 49.29073975 25.10375977 47.13818359 C23.60126453 45.53297636 22.09015935 43.93622422 20.57823181 42.33990479 C19.21484569 40.89076411 17.87166676 39.42268924 16.52978516 37.95361328 C14.16988363 35.5207824 11.73475983 33.43928314 9.04125977 31.38818359 C9.02667725 32.06397461 9.01209473 32.73976562 8.99707031 33.43603516 C8.92250565 36.50398882 8.82587322 39.57086436 8.72875977 42.63818359 C8.70620117 43.70166016 8.68364258 44.76513672 8.66040039 45.86083984 C8.62495117 46.88564453 8.58950195 47.91044922 8.55297852 48.96630859 C8.52679443 49.90893555 8.50061035 50.8515625 8.47363281 51.82275391 C7.96973061 54.8125926 7.14964608 56.2292035 5.04125977 58.38818359 C2.15844727 58.81396484 2.15844727 58.81396484 -1.08374023 58.70068359 C-2.69635742 58.66394531 -2.69635742 58.66394531 -4.34155273 58.62646484 C-6.95874023 58.38818359 -6.95874023 58.38818359 -7.95874023 57.38818359 C-8.0679273 55.71656806 -8.10780828 54.04036862 -8.11987305 52.36523438 C-8.12948059 51.29387238 -8.13908813 50.22251038 -8.14898682 49.11868286 C-8.15323669 47.95207123 -8.15748657 46.78545959 -8.16186523 45.58349609 C-8.16756531 44.39343964 -8.17326538 43.20338318 -8.17913818 41.9772644 C-8.18860551 39.45360203 -8.19512901 36.9299272 -8.19897461 34.40625 C-8.20868117 30.53672813 -8.23968954 26.66773691 -8.27124023 22.79833984 C-8.27776971 20.35172843 -8.2830204 17.9051132 -8.28686523 15.45849609 C-8.30538544 13.71465134 -8.30538544 13.71465134 -8.32427979 11.93557739 C-8.32127869 10.85791107 -8.31827759 9.78024475 -8.31518555 8.66992188 C-8.31883118 7.72029572 -8.32247681 6.77066956 -8.32623291 5.79226685 C-7.95874023 3.38818359 -7.95874023 3.38818359 -6.74638367 1.58233643 C-4.38100447 0.00225383 -2.83676739 0.00763087 0 0 Z " fill="#6B4CDF" transform="translate(178.958740234375,80.61181640625)"/>
<path d="M0 0 C1.11785889 -0.00315216 2.23571777 -0.00630432 3.38745117 -0.009552 C5.21240112 -0.00651566 5.21240112 -0.00651566 7.07421875 -0.00341797 C8.31341064 -0.00437469 9.55260254 -0.00533142 10.8293457 -0.00631714 C13.45560156 -0.00699921 16.08176508 -0.00564085 18.70800781 -0.00097656 C22.08100589 0.00472073 25.4539244 0.00144151 28.82691956 -0.00454903 C32.03435552 -0.00902317 35.24178175 -0.00589429 38.44921875 -0.00341797 C39.66585205 -0.0054422 40.88248535 -0.00746643 42.13598633 -0.009552 C43.81277466 -0.00482376 43.81277466 -0.00482376 45.5234375 0 C46.51303467 0.00079559 47.50263184 0.00159119 48.5222168 0.00241089 C50.76171875 0.12939453 50.76171875 0.12939453 51.76171875 1.12939453 C52 3.52783203 52 3.52783203 52.07421875 6.50439453 C52.13029297 7.97005859 52.13029297 7.97005859 52.1875 9.46533203 C51.76171875 12.12939453 51.76171875 12.12939453 50.04638672 13.77163696 C47.38056861 15.35590862 45.86260895 15.50909831 42.78125 15.51757812 C41.79342529 15.52703461 40.80560059 15.53649109 39.7878418 15.54623413 C38.72734619 15.54016144 37.66685059 15.53408875 36.57421875 15.52783203 C34.93223511 15.5321373 34.93223511 15.5321373 33.25708008 15.53652954 C30.94384239 15.53857005 28.63058745 15.53304115 26.31738281 15.52050781 C22.77499844 15.50445471 19.2337551 15.52035773 15.69140625 15.53955078 C13.4440079 15.53756835 11.19661025 15.53372467 8.94921875 15.52783203 C7.35847534 15.53694107 7.35847534 15.53694107 5.7355957 15.54623413 C4.747771 15.53677765 3.75994629 15.52732117 2.7421875 15.51757812 C1.87489014 15.51519135 1.00759277 15.51280457 0.11401367 15.51034546 C-2.76097673 15.04474472 -4.14669641 14.13185779 -6.23828125 12.12939453 C-6.6640625 9.46533203 -6.6640625 9.46533203 -6.55078125 6.50439453 C-6.52628906 5.52212891 -6.50179687 4.53986328 -6.4765625 3.52783203 C-6.04056726 -0.8607102 -3.93871618 0.00316656 0 0 Z " fill="#6B4CDF" transform="translate(177.23828125,60.87060546875)"/>
</svg>
